<?xml version="1.0" encoding="UTF-8"?>
<svg xmlns="http://www.w3.org/2000/svg" width="1920" height="1080" viewBox="0 0 1920 1080">
<defs>
  <clipPath id="rootClip"><rect x="0" y="0" width="1920" height="1080" rx="82" ry="82"/></clipPath>
  <linearGradient id="baseBg" x1="0" x2="1" y1="0" y2="1"><stop offset="0" stop-color="#0b111c"/><stop offset=".55" stop-color="#121b2a"/><stop offset="1" stop-color="#0a0e16"/></linearGradient>
  <linearGradient id="accentGrad" x1="0" x2="1" y1="0" y2="1"><stop offset="0" stop-color="#65b2ff"/><stop offset="1" stop-color="#347dff"/></linearGradient>
  <linearGradient id="glassGrad" x1="0" x2="0" y1="0" y2="1"><stop offset="0" stop-color="rgba(255,255,255,.11)"/><stop offset="1" stop-color="rgba(255,255,255,.045)"/></linearGradient>
  <filter id="panelShadow" x="-25%" y="-25%" width="150%" height="160%"><feDropShadow dx="0" dy="20" stdDeviation="34" flood-color="#000000" flood-opacity=".34"/></filter>
  <filter id="windowShadow" x="-22%" y="-22%" width="150%" height="160%"><feDropShadow dx="0" dy="28" stdDeviation="42" flood-color="#000000" flood-opacity=".46"/></filter>
  <filter id="deviceShadow" x="-20%" y="-20%" width="145%" height="155%"><feDropShadow dx="0" dy="30" stdDeviation="40" flood-color="#000000" flood-opacity=".50"/></filter>
  <filter id="tactileShadow" x="-50%" y="-50%" width="210%" height="210%"><feDropShadow dx="0" dy="7" stdDeviation="11" flood-color="#000000" flood-opacity=".22"/></filter>
  <filter id="blueGlow" x="-60%" y="-60%" width="220%" height="220%"><feDropShadow dx="0" dy="12" stdDeviation="18" flood-color="#4d92ff" flood-opacity=".30"/></filter>
  <filter id="knobShadow" x="-80%" y="-80%" width="260%" height="260%"><feDropShadow dx="0" dy="4" stdDeviation="8" flood-color="#000000" flood-opacity=".35"/></filter>
  <filter id="softBlur" x="-55%" y="-55%" width="210%" height="210%"><feGaussianBlur stdDeviation="80"/></filter>
  <linearGradient id="obsidianPane" x1="0" x2="1" y1="0" y2="1"><stop offset="0" stop-color="#14315a"/><stop offset=".62" stop-color="#12233d"/><stop offset="1" stop-color="#0b111b"/></linearGradient><linearGradient id="obsidianChrome" x1="0" x2="0" y1="0" y2="1"><stop offset="0" stop-color="#2b2b2f"/><stop offset="1" stop-color="#1f2024"/></linearGradient><linearGradient id="handleFace" x1="0" x2="1" y1="0" y2="1"><stop offset="0" stop-color="#101a2b"/><stop offset="1" stop-color="#0d1522"/></linearGradient>
</defs>
<g clip-path="url(#rootClip)">
  <g id="00-background"><rect x="0" y="0" width="1920" height="1080" rx="0" ry="0" fill="url(#baseBg)" stroke="none" /><circle cx="345.59999999999997" cy="86.4" r="378" fill="#62a5ff" stroke="none" opacity="0.18" filter="url(#softBlur)"/><circle cx="1689.6" cy="907.1999999999999" r="410.4" fill="#bf5af2" stroke="none" opacity="0.12" filter="url(#softBlur)"/><path d="M38.4 842.4 C537.6 626.4 806.4 993.6 1190.4 777.6 C1497.6000000000001 604.8000000000001 1689.6 864 1920 691.2" fill="none" stroke="rgba(98,165,255,.06)" stroke-width="7.68"/></g>
  <g id="01-obsidian-workspace-frame"><rect x="82" y="92" width="1390" height="820" rx="42" ry="42" fill="rgba(24,25,29,.90)" stroke="rgba(255,255,255,.20)" filter="url(#windowShadow)"/></g><g id="02-obsidian-top-chrome"><rect x="82" y="92" width="1390" height="74" rx="42" ry="42" fill="url(#obsidianChrome)" stroke="none" /><circle cx="130" cy="129" r="8.5" fill="#ff5f57" stroke="none" /><circle cx="152.1" cy="129" r="8.5" fill="#ffbd2e" stroke="none" /><circle cx="174.2" cy="129" r="8.5" fill="#28c840" stroke="none" /><text x="190" y="136" font-family="-apple-system, BlinkMacSystemFont, 'SF Pro Display', 'SF Pro Text', 'Helvetica Neue', sans-serif" font-size="15" font-weight="820" fill="rgba(220,226,238,.58)" dominant-baseline="alphabetic" letter-spacing="1.4">MINH'S VAULT</text><g transform="translate(1390 117) scale(1)" stroke="rgba(230,236,248,.62)" stroke-width="2.4" stroke-linecap="round" stroke-linejoin="round" fill="none"><rect x="3" y="4" width="18" height="16" rx="2"/><path d="M9 4v16"/></g></g><g id="03-obsidian-active-pane"><rect x="82" y="166" width="935" height="706" rx="0" ry="0" fill="url(#obsidianPane)" stroke="rgba(77,146,255,.24)" /><rect x="166" y="292" width="450" height="76" rx="28" ry="28" fill="rgba(12,20,34,.88)" stroke="rgba(130,170,230,.20)" filter="url(#tactileShadow)"/><g transform="translate(204 317) scale(1.1666666666666667)" stroke="#dce6f7" stroke-width="2.2" stroke-linecap="round" stroke-linejoin="round" fill="none"><path d="M3 7.5a2 2 0 0 1 2-2h5l2.2 2.3H19a2 2 0 0 1 2 2V17a2 2 0 0 1-2 2H5a2 2 0 0 1-2-2Z"/></g><text x="252" y="341" font-family="-apple-system, BlinkMacSystemFont, 'SF Pro Display', 'SF Pro Text', 'Helvetica Neue', sans-serif" font-size="26" font-weight="820" fill="#dce6f7" dominant-baseline="alphabetic">Music Pro</text></g><g id="04-note-placeholder-lines"><rect x="174" y="416" width="500" height="12" rx="6" ry="6" fill="rgba(215,225,245,.10)" stroke="none" /><rect x="174" y="460" width="610" height="12" rx="6" ry="6" fill="rgba(215,225,245,.10)" stroke="none" /><rect x="174" y="504" width="430" height="12" rx="6" ry="6" fill="rgba(215,225,245,.10)" stroke="none" /><rect x="174" y="548" width="560" height="12" rx="6" ry="6" fill="rgba(215,225,245,.10)" stroke="none" /><rect x="174" y="592" width="470" height="12" rx="6" ry="6" fill="rgba(215,225,245,.10)" stroke="none" /><rect x="174" y="636" width="640" height="12" rx="6" ry="6" fill="rgba(215,225,245,.10)" stroke="none" /><rect x="174" y="680" width="380" height="12" rx="6" ry="6" fill="rgba(215,225,245,.10)" stroke="none" /><rect x="174" y="724" width="520" height="12" rx="6" ry="6" fill="rgba(215,225,245,.10)" stroke="none" /></g><g id="05-hidden-compact-handle"><rect x="997" y="260" width="128" height="328" rx="34" ry="34" fill="rgba(77,146,255,.17)" stroke="none" filter="url(#blueGlow)"/><rect x="1013" y="278" width="104" height="292" rx="28" ry="28" fill="url(#handleFace)" stroke="rgba(77,146,255,.70)" filter="url(#panelShadow)"/><rect x="1031" y="356" width="10" height="86" rx="5" ry="5" fill="#62a5ff" stroke="none" filter="url(#blueGlow)"/></g><g id="06-auto-hide-label"><rect x="1254" y="388" width="224" height="154" rx="22" ry="22" fill="rgba(255,255,255,.035)" stroke="rgba(255,255,255,.28)" /><text x="1366" y="448" font-family="-apple-system, BlinkMacSystemFont, 'SF Pro Display', 'SF Pro Text', 'Helvetica Neue', sans-serif" font-size="40" font-weight="900" fill="#f4f7ff" dominant-baseline="alphabetic" text-anchor="middle" stroke="#f4f7ff" stroke-width="0.57" paint-order="stroke" stroke-linejoin="round">AUTO</text><text x="1366" y="508" font-family="-apple-system, BlinkMacSystemFont, 'SF Pro Display', 'SF Pro Text', 'Helvetica Neue', sans-serif" font-size="40" font-weight="900" fill="#f4f7ff" dominant-baseline="alphabetic" text-anchor="middle" stroke="#f4f7ff" stroke-width="0.57" paint-order="stroke" stroke-linejoin="round">HIDE</text><line x1="1196" y1="590" x2="1536" y2="590" stroke="rgba(98,165,255,.32)" stroke-width="3" stroke-linecap="round"/></g>
</g>
<rect x=".5" y=".5" width="1919" height="1079" rx="82" ry="82" fill="none" stroke="rgba(255,255,255,.10)"/>
</svg>